<?xml version="1.0" standalone="no"?>
<!DOCTYPE svg PUBLIC "-//W3C//DTD SVG 20010904//EN"
 "http://www.w3.org/TR/2001/REC-SVG-20010904/DTD/svg10.dtd">
<svg version="1.0" xmlns="http://www.w3.org/2000/svg"
 width="280.000000pt" height="280.000000pt" viewBox="0 0 280.000000 280.000000"
 preserveAspectRatio="xMidYMid meet">
<metadata>
Created by potrace 1.11, written by Peter Selinger 2001-2013
</metadata>
<g transform="translate(0.000000,280.000000) scale(0.100000,-0.100000)"
fill="#000000" stroke="none">
<path d="M1145 2753 c-252 -45 -522 -184 -714 -367 -192 -184 -349 -481 -395
-751 -21 -118 -21 -362 0 -480 46 -270 203 -567 395 -751 196 -186 465 -323
724 -368 118 -21 362 -21 480 0 256 44 526 180 719 363 117 111 254 311 319
467 126 299 140 629 40 949 -57 183 -189 402 -331 548 -186 191 -480 345 -747
391 -114 20 -378 19 -490 -1z m440 -398 c187 -36 358 -127 496 -265 191 -188
290 -422 290 -685 0 -175 -28 -292 -110 -452 -134 -262 -378 -446 -676 -509
-90 -19 -280 -19 -370 0 -197 42 -360 129 -501 270 -189 190 -285 420 -285
686 0 185 48 355 143 511 66 107 206 248 311 313 211 131 462 178 702 131z"/>
</g>
</svg>
